<svg id="visual" viewBox="0 0 1920 1080" width="1920" height="1080" xmlns="http://www.w3.org/2000/svg" xmlns:xlink="http://www.w3.org/1999/xlink" version="1.1"><rect x="0" y="0" width="1920" height="1080" fill="#151113"></rect><path d="M0 806L192 812L384 785L576 761L768 775L960 801L1152 800L1344 810L1536 815L1728 783L1920 812L1920 1081L1728 1081L1536 1081L1344 1081L1152 1081L960 1081L768 1081L576 1081L384 1081L192 1081L0 1081Z" fill="#c8ff03"></path><path d="M0 841L192 819L384 813L576 810L768 820L960 843L1152 824L1344 816L1536 821L1728 831L1920 869L1920 1081L1728 1081L1536 1081L1344 1081L1152 1081L960 1081L768 1081L576 1081L384 1081L192 1081L0 1081Z" fill="#d9a900"></path><path d="M0 898L192 881L384 919L576 900L768 901L960 862L1152 885L1344 890L1536 906L1728 911L1920 921L1920 1081L1728 1081L1536 1081L1344 1081L1152 1081L960 1081L768 1081L576 1081L384 1081L192 1081L0 1081Z" fill="#b26130"></path><path d="M0 924L192 971L384 974L576 931L768 940L960 948L1152 929L1344 936L1536 960L1728 975L1920 946L1920 1081L1728 1081L1536 1081L1344 1081L1152 1081L960 1081L768 1081L576 1081L384 1081L192 1081L0 1081Z" fill="#673232"></path><path d="M0 1007L192 1007L384 1028L576 997L768 1009L960 1003L1152 1023L1344 1002L1536 993L1728 993L1920 1013L1920 1081L1728 1081L1536 1081L1344 1081L1152 1081L960 1081L768 1081L576 1081L384 1081L192 1081L0 1081Z" fill="#161314"></path></svg>